<svg width="174" height="40" viewBox="0 0 174 40" fill="none" xmlns="http://www.w3.org/2000/svg">
<g clip-path="url(#clip0)">
<path fill-rule="evenodd" clip-rule="evenodd" d="M47.1335 2.02033C47.0545 2.00452 46.9739 1.9979 46.8933 2.00058L16.9764 2.99781C16.678 3.00776 16.398 3.14462 16.2069 3.37399L11.2207 9.35737C10.891 9.753 10.898 10.3296 11.2371 10.7172L17.5483 17.93L4.33203 30.2022C4.17085 30.3519 4.0609 30.5485 4.01777 30.7642L3.02054 35.7503C2.90712 36.3174 3.27488 36.869 3.84194 36.9824L8.82809 37.9797C8.90714 37.9955 8.98776 38.0021 9.06833 37.9994L38.9852 37.0022C39.2836 36.9922 39.5636 36.8554 39.7547 36.626L44.7409 30.6426C45.0706 30.247 45.0636 29.6704 44.7245 29.2828L38.4133 22.07L51.6296 9.79777C51.7908 9.64811 51.9007 9.4515 51.9439 9.23582L52.9411 4.24967C53.0545 3.68261 52.6868 3.13098 52.1197 3.01756L47.1335 2.02033ZM13.7737 9.56505L17.1777 5.48019L23.9858 12.2883L13.7737 9.56505ZM27.1996 12.9635L48.5235 4.43398L46.8418 4.09764L19.2533 5.01726L27.1996 12.9635ZM28.747 14.2779L36.7943 20.7156L49.9567 8.49338L50.5435 5.55927L28.747 14.2779ZM28.2544 16.1825L35.2999 21.8189L29.6635 24.6371L28.2544 16.1825ZM26.298 15.3629L20.6618 18.181L27.7071 23.8172L26.298 15.3629ZM31.4982 25.7266L36.5987 23.1764L41.0616 28.2768L31.4982 25.7266ZM7.43812 35.566L28.7618 27.0365L36.708 34.9828L9.11983 35.9024L7.43812 35.566ZM42.188 30.4349L38.7838 34.52L31.9753 27.7116L42.188 30.4349ZM19.1675 19.2843L6.00493 31.5066L5.41811 34.4407L27.2147 25.7221L19.1675 19.2843ZM24.4633 14.2733L14.9 11.7231L19.3629 16.8236L24.4633 14.2733Z" fill="black"/>
<path d="M59.0098 22.3936L58.7949 20.5781C59.2174 20.6927 59.5863 20.75 59.9014 20.75C60.3311 20.75 60.6748 20.6784 60.9326 20.5352C61.1904 20.3919 61.4017 20.1914 61.5664 19.9336C61.6882 19.7402 61.8851 19.2604 62.1572 18.4941C62.193 18.3867 62.2503 18.2292 62.3291 18.0215L58 6.5918H60.084L62.458 13.1982C62.766 14.0361 63.0417 14.917 63.2852 15.8408C63.5072 14.9528 63.7721 14.0863 64.0801 13.2412L66.5186 6.5918H68.4521L64.1123 18.1934C63.6468 19.4466 63.2852 20.3096 63.0273 20.7822C62.6836 21.4196 62.2897 21.8851 61.8457 22.1787C61.4017 22.4795 60.8717 22.6299 60.2559 22.6299C59.8835 22.6299 59.4681 22.5511 59.0098 22.3936Z" fill="black"/>
<path d="M69.376 12.2959C69.376 10.1833 69.9632 8.61849 71.1377 7.60156C72.1188 6.75651 73.3148 6.33398 74.7256 6.33398C76.2939 6.33398 77.5758 6.84961 78.5713 7.88086C79.5667 8.90495 80.0645 10.3229 80.0645 12.1348C80.0645 13.6029 79.8424 14.7594 79.3984 15.6045C78.9616 16.4424 78.3206 17.0941 77.4756 17.5596C76.6377 18.0251 75.721 18.2578 74.7256 18.2578C73.1286 18.2578 71.8359 17.7458 70.8477 16.7217C69.8665 15.6976 69.376 14.2223 69.376 12.2959ZM71.3633 12.2959C71.3633 13.7568 71.682 14.8525 72.3193 15.583C72.9567 16.3063 73.7588 16.668 74.7256 16.668C75.6852 16.668 76.4837 16.3027 77.1211 15.5723C77.7585 14.8418 78.0771 13.7282 78.0771 12.2314C78.0771 10.8206 77.7549 9.75358 77.1104 9.03027C76.473 8.2998 75.6781 7.93457 74.7256 7.93457C73.7588 7.93457 72.9567 8.29622 72.3193 9.01953C71.682 9.74284 71.3633 10.835 71.3633 12.2959Z" fill="black"/>
<path d="M89.8184 18V16.3242C88.9303 17.6133 87.7236 18.2578 86.1982 18.2578C85.5251 18.2578 84.8949 18.1289 84.3076 17.8711C83.7275 17.6133 83.2943 17.291 83.0078 16.9043C82.7285 16.5104 82.5316 16.0306 82.417 15.4648C82.3382 15.0853 82.2988 14.4837 82.2988 13.6602V6.5918H84.2324V12.9189C84.2324 13.9287 84.2718 14.609 84.3506 14.96C84.4723 15.4684 84.7301 15.8695 85.124 16.1631C85.5179 16.4495 86.0049 16.5928 86.585 16.5928C87.165 16.5928 87.7093 16.446 88.2178 16.1523C88.7262 15.8516 89.0843 15.4469 89.292 14.9385C89.5068 14.4229 89.6143 13.6781 89.6143 12.7041V6.5918H91.5479V18H89.8184Z" fill="black"/>
<path d="M94.5879 18V6.5918H96.3281V8.21387C97.166 6.96061 98.3763 6.33398 99.959 6.33398C100.646 6.33398 101.277 6.45931 101.85 6.70996C102.43 6.95345 102.863 7.27572 103.149 7.67676C103.436 8.0778 103.636 8.55404 103.751 9.10547C103.823 9.46354 103.858 10.0902 103.858 10.9854V18H101.925V11.0605C101.925 10.2728 101.85 9.68555 101.699 9.29883C101.549 8.90495 101.28 8.59342 100.894 8.36426C100.514 8.12793 100.066 8.00977 99.5508 8.00977C98.7272 8.00977 98.0146 8.27116 97.4131 8.79395C96.8187 9.31673 96.5215 10.3086 96.5215 11.7695V18H94.5879Z" fill="black"/>
<path d="M106.479 18.9453L108.359 19.2246C108.438 19.8047 108.657 20.2272 109.015 20.4922C109.494 20.8503 110.15 21.0293 110.98 21.0293C111.876 21.0293 112.567 20.8503 113.054 20.4922C113.541 20.1341 113.87 19.6328 114.042 18.9883C114.142 18.5944 114.189 17.7673 114.182 16.5068C113.337 17.5023 112.284 18 111.023 18C109.455 18 108.241 17.4342 107.382 16.3027C106.522 15.1712 106.093 13.8141 106.093 12.2314C106.093 11.1429 106.29 10.1403 106.684 9.22363C107.077 8.2998 107.647 7.58724 108.392 7.08594C109.144 6.58464 110.024 6.33398 111.034 6.33398C112.381 6.33398 113.491 6.87826 114.364 7.9668V6.5918H116.147V16.4531C116.147 18.2292 115.965 19.486 115.6 20.2236C115.242 20.9684 114.669 21.5557 113.881 21.9854C113.1 22.415 112.137 22.6299 110.991 22.6299C109.631 22.6299 108.531 22.3219 107.693 21.7061C106.855 21.0973 106.451 20.1771 106.479 18.9453ZM108.08 12.0918C108.08 13.5885 108.377 14.6807 108.972 15.3682C109.566 16.0557 110.311 16.3994 111.206 16.3994C112.094 16.3994 112.839 16.0592 113.44 15.3789C114.042 14.6914 114.343 13.6172 114.343 12.1562C114.343 10.7598 114.031 9.70703 113.408 8.99805C112.792 8.28906 112.048 7.93457 111.174 7.93457C110.314 7.93457 109.584 8.28548 108.982 8.9873C108.381 9.68197 108.08 10.7168 108.08 12.0918Z" fill="black"/>
<path d="M120.863 18H119.069V2.25195H121.003V7.87012C121.819 6.84603 122.861 6.33398 124.129 6.33398C124.831 6.33398 125.493 6.47721 126.116 6.76367C126.746 7.04297 127.262 7.44043 127.663 7.95605C128.071 8.46452 128.39 9.0804 128.619 9.80371C128.848 10.527 128.963 11.3005 128.963 12.124C128.963 14.0791 128.479 15.5902 127.513 16.6572C126.546 17.7243 125.386 18.2578 124.032 18.2578C122.686 18.2578 121.63 17.6956 120.863 16.5713V18ZM120.842 12.21C120.842 13.5778 121.028 14.5661 121.4 15.1748C122.009 16.1702 122.833 16.668 123.871 16.668C124.716 16.668 125.447 16.3027 126.062 15.5723C126.678 14.8346 126.986 13.7389 126.986 12.2852C126.986 10.7956 126.689 9.69629 126.095 8.9873C125.507 8.27832 124.795 7.92383 123.957 7.92383C123.112 7.92383 122.382 8.29264 121.766 9.03027C121.15 9.76074 120.842 10.8206 120.842 12.21Z" fill="black"/>
<path d="M139.136 14.3262L141.134 14.5732C140.819 15.7406 140.235 16.6465 139.383 17.291C138.531 17.9355 137.442 18.2578 136.117 18.2578C134.449 18.2578 133.124 17.7458 132.143 16.7217C131.169 15.6904 130.682 14.2474 130.682 12.3926C130.682 10.4733 131.176 8.98372 132.164 7.92383C133.152 6.86393 134.434 6.33398 136.01 6.33398C137.535 6.33398 138.781 6.85319 139.748 7.8916C140.715 8.93001 141.198 10.391 141.198 12.2744C141.198 12.389 141.195 12.5609 141.188 12.79H132.68C132.751 14.0433 133.106 15.0029 133.743 15.6689C134.381 16.335 135.175 16.668 136.128 16.668C136.837 16.668 137.442 16.4818 137.943 16.1094C138.445 15.737 138.842 15.1426 139.136 14.3262ZM132.787 11.2002H139.157C139.071 10.2406 138.828 9.52083 138.427 9.04102C137.811 8.29622 137.012 7.92383 136.031 7.92383C135.143 7.92383 134.395 8.22103 133.786 8.81543C133.185 9.40983 132.852 10.2048 132.787 11.2002Z" fill="black"/>
<path d="M142.853 12.2959C142.853 10.1833 143.44 8.61849 144.614 7.60156C145.595 6.75651 146.791 6.33398 148.202 6.33398C149.771 6.33398 151.052 6.84961 152.048 7.88086C153.043 8.90495 153.541 10.3229 153.541 12.1348C153.541 13.6029 153.319 14.7594 152.875 15.6045C152.438 16.4424 151.797 17.0941 150.952 17.5596C150.114 18.0251 149.198 18.2578 148.202 18.2578C146.605 18.2578 145.312 17.7458 144.324 16.7217C143.343 15.6976 142.853 14.2223 142.853 12.2959ZM144.84 12.2959C144.84 13.7568 145.159 14.8525 145.796 15.583C146.433 16.3063 147.235 16.668 148.202 16.668C149.162 16.668 149.96 16.3027 150.598 15.5723C151.235 14.8418 151.554 13.7282 151.554 12.2314C151.554 10.8206 151.231 9.75358 150.587 9.03027C149.95 8.2998 149.155 7.93457 148.202 7.93457C147.235 7.93457 146.433 8.29622 145.796 9.01953C145.159 9.74284 144.84 10.835 144.84 12.2959Z" fill="black"/>
<path d="M155.818 18V6.5918H157.548V8.19238C157.906 7.63379 158.382 7.1862 158.977 6.84961C159.571 6.50586 160.248 6.33398 161.007 6.33398C161.852 6.33398 162.543 6.50944 163.08 6.86035C163.624 7.21126 164.007 7.70182 164.229 8.33203C165.132 7 166.306 6.33398 167.753 6.33398C168.884 6.33398 169.755 6.64909 170.363 7.2793C170.972 7.90234 171.276 8.86556 171.276 10.1689V18H169.354V10.8135C169.354 10.04 169.289 9.48503 169.16 9.14844C169.038 8.80469 168.813 8.52897 168.483 8.32129C168.154 8.11361 167.767 8.00977 167.323 8.00977C166.521 8.00977 165.855 8.27832 165.325 8.81543C164.795 9.34538 164.53 10.1976 164.53 11.3721V18H162.597V10.5879C162.597 9.72852 162.439 9.08398 162.124 8.6543C161.809 8.22461 161.293 8.00977 160.577 8.00977C160.033 8.00977 159.528 8.15299 159.062 8.43945C158.604 8.72591 158.271 9.14486 158.063 9.69629C157.856 10.2477 157.752 11.0426 157.752 12.0811V18H155.818Z" fill="black"/>
<path d="M62.1809 27.1955C60.9131 27.1955 59.8872 27.6037 59.1033 28.4395C58.3678 29.2073 58 30.1307 58 31.2192C58 31.919 58.1645 32.5216 58.5129 33.0076C58.871 33.513 59.3356 33.7657 59.8969 33.7657C60.5937 33.7657 61.1647 33.2214 61.5905 32.1328C61.8518 31.5011 62.0551 30.6847 62.2002 29.6836L62.4035 27.8758C63.139 27.9147 63.7777 28.1771 64.3197 28.6533C64.9198 29.1782 65.2198 29.8391 65.2198 30.6555C65.2198 31.4914 64.9778 32.162 64.5133 32.6479C64.0003 33.1728 63.168 33.5518 62.0164 33.7754L62.2583 34.4363C63.4874 34.1836 64.3971 33.7754 64.9778 33.2117C65.6166 32.5896 65.9456 31.7441 65.9456 30.6555C65.9456 29.6836 65.5875 28.8672 64.8907 28.2063C64.1649 27.5259 63.2648 27.1955 62.1809 27.1955ZM59.8969 33.095C59.5678 33.095 59.2872 32.9201 59.0743 32.5702C58.842 32.2106 58.7258 31.7635 58.7258 31.2192C58.7258 30.257 59.0549 29.4503 59.7324 28.8089C60.2743 28.284 60.9324 27.973 61.697 27.8952C61.6196 28.9255 61.4744 29.878 61.2808 30.743C60.9227 32.3078 60.4582 33.095 59.8969 33.095Z" fill="black"/>
<path d="M76.1075 26.243L75.6236 26.6998C76.2817 27.2149 76.7946 27.7009 77.1721 28.1674L77.6463 27.6814C77.2301 27.2052 76.7172 26.7289 76.1075 26.243ZM74.9848 29.0518V29.7225H76.3301V33.5713C76.3301 33.7268 76.2527 33.8726 76.1172 34.0086L76.3881 34.6307C77.0656 34.1836 77.714 33.6782 78.3237 33.1048L78.1302 32.3661C77.7334 32.7451 77.3559 33.0756 77.0075 33.3672V29.0518H74.9848ZM78.4205 30.189V30.8693H78.9528C79.2238 31.7149 79.7174 32.473 80.4529 33.1533C79.727 33.6685 78.827 34.0864 77.7527 34.4071L78.1399 35C79.2722 34.6501 80.2303 34.1933 81.0045 33.6102C81.682 34.135 82.5337 34.5918 83.5402 35L83.9176 34.3974C82.9692 34.0475 82.1659 33.649 81.5078 33.1922C82.2143 32.5313 82.7175 31.7441 83.0272 30.8305V30.189H78.4205ZM79.6109 30.8693H82.3401C82.0304 31.5886 81.5659 32.2106 80.9465 32.7549C80.3077 32.2009 79.8625 31.5691 79.6109 30.8693ZM79.1657 26.4374V27.5162C79.1657 28.284 78.7399 28.8769 77.8979 29.2948L78.3625 29.8294C79.3496 29.2657 79.8529 28.4687 79.8529 27.4384V27.0983H81.7304V28.6825C81.7304 29.2559 82.0207 29.5475 82.6208 29.5475H83.6853V28.906H82.795C82.5433 28.906 82.4175 28.7797 82.4175 28.5367V26.4374H79.1657Z" fill="black"/>
<path d="M95.4344 28.9741V29.6739H98.0571V34.9903H98.7733V29.6739H101.261V28.9741H98.7733V26.0486H98.0571V28.9741H95.4344ZM93.5375 26.1555L93.0536 26.6317C93.7504 27.1566 94.3117 27.662 94.7182 28.1382L95.1924 27.6523C94.7473 27.1469 94.1956 26.6512 93.5375 26.1555ZM92.4052 29.0324V29.703H93.8278V33.581C93.8278 33.7365 93.7504 33.8726 93.6053 33.9892L93.8762 34.621C94.5634 34.1641 95.2118 33.649 95.8118 33.0659L95.6376 32.3467C95.2312 32.7354 94.844 33.0659 94.4956 33.3575V29.0324H92.4052Z" fill="black"/>
<path d="M113.948 32.7646L114.413 32.2981C114.026 31.6955 113.639 31.1415 113.271 30.6361C113.523 29.8099 113.726 28.8963 113.881 27.8952L113.242 27.7786C113.126 28.5562 112.971 29.2948 112.787 29.9752C112.381 29.4309 111.993 28.9741 111.635 28.595L111.2 29.013C111.645 29.5281 112.1 30.0918 112.564 30.7138C112.235 31.6955 111.819 32.5508 111.316 33.27L111.761 33.8143C112.255 33.1339 112.681 32.3175 113.029 31.365C113.329 31.8024 113.639 32.2689 113.948 32.7646ZM116.784 33.2117L117.258 32.7451C116.842 32.0454 116.445 31.4136 116.078 30.8499C116.368 29.9752 116.6 29.0032 116.774 27.9244L116.116 27.8078C115.981 28.6436 115.816 29.4309 115.603 30.1598C115.197 29.5767 114.81 29.0907 114.461 28.6922L114.026 29.1102C114.471 29.6544 114.906 30.257 115.352 30.9179C114.994 31.9093 114.539 32.7743 113.997 33.513L114.442 34.0475C114.965 33.3672 115.419 32.5508 115.807 31.5983C116.126 32.1037 116.455 32.6382 116.784 33.2117ZM117.229 34.9125C117.8 34.9125 118.091 34.6112 118.091 34.0184V26.4568H110.368V34.9514H111.055V27.1274H117.403V33.8629C117.403 34.1253 117.268 34.2613 116.997 34.2613L116.068 34.2322L116.252 34.9125H117.229Z" fill="black"/>
<path d="M133.227 26.0486V33.9017H131.775V28.1091H131.078V33.9017H129.956V34.5821H136.053V33.9017H133.933V29.8294H135.772V29.1587H133.933V26.0486H133.227ZM130.44 32.1425C130.014 32.2981 129.578 32.4341 129.133 32.5605V29.2462H130.323V28.5659H129.133V26.0972H128.417V28.5659H127.207V29.2462H128.417V32.7549C127.991 32.8521 127.556 32.9395 127.11 33.0173L127.294 33.7559C128.417 33.5227 129.472 33.2214 130.44 32.8715V32.1425Z" fill="black"/>
<path d="M144.705 31.4428V32.1231H150.599V34.0086C150.599 34.2419 150.454 34.3585 150.173 34.3585C149.805 34.3585 149.428 34.3391 149.021 34.3099L149.176 35H150.415C150.996 35 151.296 34.7279 151.296 34.1836V32.1231H153.425V31.4428H151.296V30.8305H150.599V31.4428H144.705ZM151.963 26.4374H145.721V29.703C145.721 30.2279 146.002 30.5 146.582 30.5H152.215C152.622 30.4806 152.893 30.3348 153.028 30.0432C153.105 29.8488 153.173 29.5378 153.222 29.1004L152.563 28.8866C152.525 29.2948 152.467 29.5475 152.409 29.6544C152.331 29.7711 152.205 29.8391 152.012 29.8488H146.834C146.563 29.8488 146.418 29.7127 146.418 29.4503V28.7505H151.963V26.4374ZM146.418 28.1091V27.0691H151.267V28.1091H146.418ZM146.931 32.4147L146.437 32.8909C147.115 33.4449 147.657 33.9698 148.044 34.4654L148.566 33.9406C148.121 33.4352 147.579 32.9201 146.931 32.4147Z" fill="black"/>
<path d="M166.248 27.3121V28.0022H170.642V27.3121H168.793C168.639 26.8261 168.493 26.3888 168.339 26.0097L167.613 26.1263C167.787 26.486 167.942 26.8844 168.077 27.3121H166.248ZM162.077 30.2959V30.9374H162.725C162.696 32.3661 162.464 33.5518 162.038 34.5043L162.58 35C163.064 33.96 163.325 32.6091 163.364 30.9374H165.193V33.8531C165.193 34.1447 165.077 34.2905 164.864 34.2905C164.622 34.2905 164.361 34.2711 164.08 34.2516L164.254 34.9028H165.067C165.58 34.9028 165.842 34.6307 165.842 34.0864V27.0594H164.516C164.642 26.7678 164.738 26.4471 164.816 26.0972L164.09 26C164.022 26.3596 163.925 26.7095 163.8 27.0594H162.735V30.2959H162.077ZM165.193 30.2959H163.374V27.7106H165.193V30.2959ZM164.148 28.2063L163.645 28.3715C163.925 28.838 164.158 29.3143 164.342 29.8099L164.864 29.6739C164.651 29.1199 164.419 28.6339 164.148 28.2063ZM164.177 31.4719L163.635 31.6469C163.906 32.2106 164.138 32.8035 164.313 33.4255L164.874 33.27C164.661 32.5896 164.429 31.9968 164.177 31.4719ZM165.938 34.514L166.471 34.9903C166.887 34.4266 167.168 33.8531 167.322 33.27C167.477 32.6868 167.555 31.9676 167.555 31.1026V29.7127H168.939V34.0961C168.939 34.5821 169.21 34.8348 169.761 34.8348H170.1C170.371 34.8348 170.574 34.7959 170.7 34.7181C170.826 34.6209 170.903 34.446 170.942 34.203C170.981 33.9114 171 33.4838 171 32.9298L170.371 32.7354C170.371 33.5518 170.342 33.9989 170.294 34.0864C170.274 34.1253 170.235 34.1641 170.197 34.1836C170.139 34.203 170.081 34.2225 170.013 34.2225H169.781C169.655 34.2225 169.597 34.1544 169.597 34.0281V29.0713H166.897V31.1026C166.897 31.9579 166.829 32.6188 166.703 33.0756C166.548 33.581 166.297 34.067 165.938 34.514Z" fill="black"/>
</g>
<defs>
<clipPath id="clip0">
<rect width="174" height="40" fill="white"/>
</clipPath>
</defs>
</svg>
